- 
http://www.Speed.Cd      fast  and The Hottest Private Tracker on the net

Please Seed back to make the speed Faster!!!

------------------nfo--------------------------
-[pre][img]http://i824.photobucket.com/albums/zz161/akosipalos/hp.png[/img]   
            
*******************************************************************************
 Harry.Potter.And.The.Deathly.Hallows.Part.2.2011.480p.BRRip.XviD.AC3-PRESTiGE
*******************************************************************************

-------------------------------------------------------------------------------
                              General Information
-------------------------------------------------------------------------------

TiTLE............: Harry.Potter.And.The.Deathly.Hallows.Part.2.2011.480p.BRRip.XviD.AC3-PRESTiGE

iMDB.............: http://www.imdb.com/title/tt1201607/

GENRE............: Adventure | Drama | Fantasy   

LANGUAGE.........: English 

FORMAT...........: AVi

SOURCE...........: 720p.Bluray.x264-MHD MANY THANKS!!!

FiLE SiZE........: 2.10 GB

SAMPLE iNCLUDED..: Yes

SUBS.............: NoNE

DURATiON.........: 2h 10mn

ENCODED by.......: [b][color=maroon]akosipalos[/color][/b]


ViDEO iNFO:

ID                               : 0
Format                           : MPEG-4 Visual
Format profile                   : Advanced Simple@L5
Format settings, BVOP            : 2
Format settings, QPel            : No
Format settings, GMC             : No warppoints
Format settings, Matrix          : Default (H.263)
Codec ID                         : XVID
Codec ID/Hint                    : XviD
Duration                         : 2h 10mn
Bit rate                         : 2 044 Kbps
Width                            : 720 pixels
Height                           : 304 pixels
Display aspect ratio             : 2.35:1
Frame rate                       : 23.976 fps
Color space                      : YUV
Chroma subsampling               : 4:2:0
Bit depth                        : 8 bits
Scan type                        : Progressive
Compression mode                 : Lossy
Bits/(Pixel*Frame)               : 0.390
Stream size                      : 1.86 GiB (82%)
Writing library                  : XviD 1.2.1 (UTC 2008-12-04)


AUDiO iNFO:

ID                               : 1
Format                           : AC-3
Format/Info                      : Audio Coding 3
Mode extension                   : CM (complete main)
Codec ID                         : 2000
Duration                         : 2h 10mn
Bit rate mode                    : Constant
Bit rate                         : 448 Kbps
Channel(s)                       : 6 channels
Channel positions                : Front: L C R, Side: L R, LFE
Sampling rate                    : 48.0 KHz
Bit depth                        : 16 bits
Compression mode                 : Lossy
Stream size                      : 418 MiB (18%)
Alignment                        : Split accross interleaves
Interleave, duration             : 500 ms (11.99 video frames)
Interleave, preload duration     : 500 ms


-------------------------------------------------------------------------------
                                 PLOT:
-------------------------------------------------------------------------------


Harry, Ron and Hermione search for Voldemort's remaining Horcruxes in their effort to destroy the Dark Lord.    

 
-------------------------------------------------------------------------------
                                 CAST:
-------------------------------------------------------------------------------


Daniel Radcliffe 

Emma Watson 

Rupert Grint


-------------------------------------------------------------------------------
                               SCREENS:
-------------------------------------------------------------------------------


[img]http://i824.photobucket.com/albums/zz161/akosipalos/1-113.png[/img]

[img]http://i824.photobucket.com/albums/zz161/akosipalos/2-93.png[/img]

[img]http://i824.photobucket.com/albums/zz161/akosipalos/3-93.png[/img]

[img]http://i824.photobucket.com/albums/zz161/akosipalos/4-88.png[/img]

[img]http://i824.photobucket.com/albums/zz161/akosipalos/5-76.png[/img]

[img]http://i824.photobucket.com/albums/zz161/akosipalos/6-19.png[/img]


-------------------------------------------------------------------------------
                             Release Notes
-------------------------------------------------------------------------------

WE DONT RELEASE EVERYTHING TO OTHERS SITES YOU WANT MORE OF OUR STUFF COME FIND US AT .......

WE ARE LOOKING FOR SUPPLIERS BLURAY CAM R5 PRE RETAIL DVD GOT SOMETHING WE MIGHT LIKE WHEN YOU FIND US TELL US.......



ENCODER'S - ANYTHING AT ALL EMAIL US AT..... prestige@hushmail.me

** ** ** ** ** ** ** ** **

PRESTiGE is the level of respect at which one is regarded by others....RIzE Above Or Sink Below...


-------------------------------------------------------------------------------
                                 GREETZ:
-------------------------------------------------------------------------------


[b]| Twisted | Bigguy | CTFX | Whitestag13 | Jungledave | PA4U2C | mtyy | floridajoe | marsby | cld | Stoner | Rock | Ulap | rizal | mannilim | musikera | centserick2 | AMB | RiZAL Team RG | rock3r | canislupus | sickie | fun2knytz and To All Encoders Past And Present...[/b]


[img]http://i824.photobucket.com/albums/zz161/akosipalos/PRESTiGE-3.png[/img]


[b][color=red]PRESTiGE[/color] is the level of respect at which one is regarded by others....RIzE Above Or Sink Below...[/b]


-------------------------------------------------------------------------------
Generated with Cool NFO Creator - http://fly.to/coolbeans
-------------------------------------------------------------------------------
[/pre]